<svg id="Laag_1" data-name="Laag 1" xmlns="http://www.w3.org/2000/svg" viewBox="0 0 149 126"><title>forward</title><path d="M87.73,16.89q21.76,21.74,43.5,43.5L119.46,72.16c-10.41,10.4-21.14,21.12-31.73,31.76,0-4.84,0-9.65,0-14.68,0-2.5,0-5,0-7.56V74.82l-6.77-1a44.24,44.24,0,0,0-6.84-.52,58.57,58.57,0,0,0-15,2.12c-16.6,4.3-30.39,14.23-42.17,30.34L16,107v-1.68c.33-1.77.63-3.53.92-5.24a118.54,118.54,0,0,1,2.39-11.76c7-25.27,30.05-44.61,56.19-47,1.22-.11,2.36-.27,3.57-.44l1.69-.23,7-.91V16.89M85.18,5.21A3.62,3.62,0,0,0,83,5.93a12.18,12.18,0,0,0-3.18,4.54c-.43.88-.1,2.12-.1,3.2v19c-1.87.24-3.42.49-5,.63-29.3,2.73-55.33,24.38-63.17,52.89-1.65,6-2.42,12.24-3.59,18.37v12.35c1.75,2.71,3.68,4.06,5.58,4.06s3.87-1.4,5.6-4.2c1.33-2.16,2.71-4.31,4.21-6.36C33,97.27,45,87.3,61.11,83.12a51.48,51.48,0,0,1,13-1.86,36.91,36.91,0,0,1,5.61.42c0,9,.06,17.71,0,26.41,0,3,.38,5.61,3.38,6.85a5.59,5.59,0,0,0,2.13.45c2,0,3.58-1.18,5.14-2.76q23.43-23.55,47-47c4-4,4-6.47.08-10.4L90.62,8.46a23.38,23.38,0,0,0-1.91-1.82,5.87,5.87,0,0,0-3.53-1.43Z"/></svg>