<svg id="Laag_1" data-name="Laag 1" xmlns="http://www.w3.org/2000/svg" viewBox="0 0 224 235"><defs><style>.cls-1{fill:#fdd200;}.cls-2{fill:#b01919;}.cls-3{fill:#c9d41a;}.cls-4{fill:#fff;stroke:#1d1d1b;}.cls-5{fill:none;}</style></defs><title>logo</title><path class="cls-1" d="M88.05,205.34a.8.8,0,0,1-.9-.91v-4.6c0-.67.3-1,.9-1l14.46-1.26a.8.8,0,0,0,.9-.91V134.87a1.06,1.06,0,0,0-.9-.54H88.77q-.9,0-.9-1v-4.61a.8.8,0,0,1,.9-.9l13.74-1.72a.8.8,0,0,0,.9-.9V116.9q0-23.31,8.67-32.53,9-9.66,24.48-9.66,6.42,0,17.35,2.8.9.45.9,1.08v21q0,.72-.9.72h-5.69c-.66,0-1-.24-1-.72L144.88,86.9c-.25-1.2-2-2.22-5.15-3.07a19.54,19.54,0,0,0-5.06-.63q-16.26,0-16.27,25.75v15.89a.8.8,0,0,0,.91.91h22.22c.6,0,.91.33.91,1v6.6c0,.66-.31,1-.91,1H119.31a.8.8,0,0,0-.91.9v61.43c0,.55.3.85.91.91l14.63,1.26a.91.91,0,0,1,.91,1v4.6a.81.81,0,0,1-.91.91Z"/><path class="cls-2" d="M82.05,205.34a.8.8,0,0,1-.9-.91v-4.6c0-.67.3-1,.9-1l14.46-1.26a.8.8,0,0,0,.9-.91V134.87a1.06,1.06,0,0,0-.9-.54H82.77q-.9,0-.9-1v-4.61a.8.8,0,0,1,.9-.9l13.74-1.72a.8.8,0,0,0,.9-.9V116.9q0-23.31,8.67-32.53,9-9.66,24.48-9.66,6.42,0,17.35,2.8.9.45.9,1.08v21q0,.72-.9.72h-5.69c-.66,0-1-.24-1-.72L138.88,86.9c-.25-1.2-2-2.22-5.15-3.07a19.54,19.54,0,0,0-5.06-.63q-16.26,0-16.27,25.75v15.89a.8.8,0,0,0,.91.91h22.22c.6,0,.91.33.91,1v6.6c0,.66-.31,1-.91,1H113.31a.8.8,0,0,0-.91.9v61.43c0,.55.3.85.91.91l14.63,1.26a.91.91,0,0,1,.91,1v4.6a.81.81,0,0,1-.91.91Z"/><path class="cls-3" d="M76.05,205.34a.8.8,0,0,1-.9-.91v-4.6c0-.67.3-1,.9-1l14.46-1.26a.8.8,0,0,0,.9-.91V134.87a1.06,1.06,0,0,0-.9-.54H76.77q-.9,0-.9-1v-4.61a.8.8,0,0,1,.9-.9l13.74-1.72a.8.8,0,0,0,.9-.9V116.9q0-23.31,8.67-32.53,9-9.66,24.48-9.66,6.42,0,17.35,2.8.9.45.9,1.08v21q0,.72-.9.72h-5.69c-.66,0-1-.24-1-.72L132.88,86.9c-.25-1.2-2-2.22-5.15-3.07a19.54,19.54,0,0,0-5.06-.63q-16.26,0-16.27,25.75v15.89a.8.8,0,0,0,.91.91h22.22c.6,0,.91.33.91,1v6.6c0,.66-.31,1-.91,1H107.31a.8.8,0,0,0-.91.9v61.43c0,.55.3.85.91.91l14.63,1.26a.91.91,0,0,1,.91,1v4.6a.81.81,0,0,1-.91.91Z"/><path class="cls-4" d="M71.05,205.34a.8.8,0,0,1-.9-.91v-4.6c0-.67.3-1,.9-1l14.46-1.26a.8.8,0,0,0,.9-.91V134.87a1.06,1.06,0,0,0-.9-.54H71.77q-.9,0-.9-1v-4.61a.8.8,0,0,1,.9-.9l13.74-1.72a.8.8,0,0,0,.9-.9V116.9q0-23.31,8.67-32.53,9-9.66,24.48-9.66,6.42,0,17.35,2.8.9.45.9,1.08v21q0,.72-.9.72h-5.69c-.66,0-1-.24-1-.72L127.88,86.9c-.25-1.2-2-2.22-5.15-3.07a19.54,19.54,0,0,0-5.06-.63q-16.26,0-16.27,25.75v15.89a.8.8,0,0,0,.91.91h22.22c.6,0,.91.33.91,1v6.6c0,.66-.31,1-.91,1H102.31a.8.8,0,0,0-.91.9v61.43c0,.55.3.85.91.91l14.63,1.26a.91.91,0,0,1,.91,1v4.6a.81.81,0,0,1-.91.91Z"/><path class="cls-3" d="M75.25,117.49a6.57,6.57,0,0,1-1.59-1.22c-2.13-3-4-6.28-6.28-9.2a34.91,34.91,0,0,0-11.54-9.53c-.16.2-.3.29-.29.38.35,6.72-4.27,9-9.49,8.6a17.47,17.47,0,0,1-9.36-3.38c-4.89-3.6-9.74-7.27-14.7-11a1.49,1.49,0,0,1,.42-.44A47,47,0,0,1,38.64,85c5.4-1,10.46-.38,13.87,4.58a41.46,41.46,0,0,1,2.81,5.83L42.09,92.71l0,.06,13.37,3.54-.26.8.24-1.38,9.69,5.64A29.92,29.92,0,0,1,63.78,81.3l3,.57c1.2-4.25,2.4-8.41,3.54-12.59A4.37,4.37,0,0,1,73.55,66C77.94,64.46,81,61.09,84,57.57l-11,6.2-.39-.42c1-2.5,2-5,2.86-7.53.94-2.91,1.93-5.56,4.55-7.64,1.86-1.47,2.85-4,3.82-6.37L78,47.13C77.72,41,77,35.4,74.44,29.91c.2,5.67.39,11.11.59,16.55l-.76.17-4.45-7.91c.1,4,.82,7.29,3,10.1,1.1,1.45,1.48,2.71.76,4.38-1.35,3.14-2.62,6.32-4,9.73-3.74-3.68-5.9-7.92-7.87-12.31.79,5.23,2,10.27,5.81,14.27a2.07,2.07,0,0,1,.5,1.69c-1.45,4.75-3,9.48-4.54,14.3C58.65,81,52.69,76.93,50.83,72Q45.12,56.63,55.2,43.67a25.27,25.27,0,0,1,2.13-2.59C65,33.55,67,24,67.14,13.74c0-.12-.11-.25-.16-.37l.36-.21c1.29.82,2.58,1.63,3.85,2.47a51.08,51.08,0,0,1,19.62,24.8c3.24,8.32,4.43,16.92,2.06,25.73-3.11,11.51-12,17.47-23.84,16l-2.44-.28c-2,12,2.07,21.95,9.3,30.89,1,1.19,1.58,2.16,1.2,3.64Z"/><path class="cls-2" d="M169.37,173.84c-2.15,2.25-4.25,4.47-6.38,6.66a8.57,8.57,0,0,1-4.36,2.45c-2.39.57-4.72,0-5.31-2.88l-.13-1.23a2.12,2.12,0,0,1,.11.21c0-.1-.07-.21-.14-.4l6.29-2.83v0l-6.33,2.43a22.82,22.82,0,0,1,.9-3.12c1.29-2.74,3.74-3.46,6.51-3.43a23.75,23.75,0,0,1,8.6,2A.62.62,0,0,1,169.37,173.84Z"/><path class="cls-1" d="M66.19,147c-2.16,2.24-4.25,4.47-6.38,6.66a8.76,8.76,0,0,1-4.36,2.45c-2.4.57-4.72,0-5.32-2.88L50,152a2,2,0,0,1,.11.21,4,4,0,0,0-.14-.4L56.26,149a0,0,0,0,0,0,0l-6.34,2.42a22.25,22.25,0,0,1,.91-3.12c1.28-2.74,3.74-3.46,6.5-3.42a23.69,23.69,0,0,1,8.6,2A.79.79,0,0,1,66.19,147Z"/><path class="cls-3" d="M186.49,16c-4.38,6-7.45,12.45-6.26,20.21a19.84,19.84,0,0,1,.11,2.44A20.16,20.16,0,0,1,170.49,57c-3.26,2.08-8.49,1.81-11.22-.32,1.21-3.48,2.38-6.91,3.62-10.31a1.49,1.49,0,0,1,1-.76c4-.66,6.88-3.07,9.62-5.77a27.83,27.83,0,0,1-10,3.73c.67-2.6,1.32-5,1.91-7.43A2.86,2.86,0,0,1,167.85,34,12.08,12.08,0,0,0,174,29.37L167.94,32l-.37-.44,7.59-9.37a32.18,32.18,0,0,0-9.59,8.48c-.35-1.88-.69-3.76-1-5.64-.46,1.79-1,3.71-.57,5.38.62,2.36,0,4.34-.69,6.45-.64,1.84-1.1,3.75-1.64,5.63l-.41.07q-1.84-4.22-3.7-8.44c.15,3.32.48,6.65,2.37,9.45a3.17,3.17,0,0,1,.43,3.33c-1.16,2.94-2.28,5.89-3.44,8.88.71.36,1.33.66,2,1a21.89,21.89,0,0,1-9.59,11.09l8.11,1c-.07.14-.13.26-.19.36-.13.26-.2.41-.28.55,0-.11.08-.22.11-.33l-1.17,1.36c.16-.23.33-.46.53-.7,0,0,0-.16,0-.35a25.48,25.48,0,0,0-10.89.5c-2.6.7-5.11,1.76-7.68,2.6a4.46,4.46,0,0,1-1.46,0c-.21-.46-.41-.93-.62-1.4.42-1,1.21-1.32,2.29-1.6,8.12-2,14.86-6,18.94-13.9l-1.55-.9c-7.52-4.37-10.08-11.72-6.84-19.78C151,29.08,155.5,24.6,161,21.17a37.24,37.24,0,0,1,22.28-5.84c1.1.07,2.21.17,3.31.25,0,.09.09.19.13.28S186.54,15.93,186.49,16Z"/><path class="cls-1" d="M187.19,124.81c-3.68,0-7.31,0-10.92,0A10.33,10.33,0,0,1,170.6,123c-2.45-1.59-3.83-4.08-1.87-6.92l1-1.11c0,.09-.06.18-.09.27.07-.11.12-.24.23-.45,2.52,1,5,2,7.57,3.09l0,0-7.26-3.46a25.93,25.93,0,0,1,3.42-1.77c3.4-1.13,6,.39,8.26,2.79a28.09,28.09,0,0,1,5.3,9A.76.76,0,0,1,187.19,124.81Z"/><path class="cls-3" d="M199.57,62.19c-4.38,6-7.45,12.45-6.26,20.21a19.84,19.84,0,0,1,.11,2.44,20.16,20.16,0,0,1-9.85,18.38c-3.26,2.08-8.49,1.81-11.22-.32,1.21-3.48,2.38-6.91,3.62-10.31a1.49,1.49,0,0,1,1-.76c4-.66,6.88-3.07,9.62-5.77a27.83,27.83,0,0,1-10,3.73c.67-2.6,1.32-5,1.91-7.43a2.86,2.86,0,0,1,2.36-2.22,12.08,12.08,0,0,0,6.15-4.58L181,78.22l-.37-.44,7.59-9.37a32.18,32.18,0,0,0-9.59,8.48c-.35-1.88-.69-3.76-1-5.64-.46,1.79-1,3.71-.57,5.38.62,2.36,0,4.34-.69,6.45-.64,1.84-1.1,3.75-1.64,5.63l-.41.07q-1.85-4.22-3.7-8.44c.15,3.32.48,6.65,2.37,9.45a3.17,3.17,0,0,1,.43,3.33C172.24,96.06,171.12,99,170,102c.71.36,1.33.66,2,1a21.89,21.89,0,0,1-9.59,11.09l8.11,1c-.07.14-.13.26-.19.36-.13.26-.2.41-.28.55,0-.11.08-.22.11-.33L168.94,117c.16-.23.33-.46.53-.7,0-.05,0-.16,0-.35a25.48,25.48,0,0,0-10.89.5c-2.6.7-5.11,1.76-7.68,2.6a4.46,4.46,0,0,1-1.46,0c-.21-.46-.41-.93-.62-1.4.42-1,1.21-1.32,2.29-1.6,8.12-2,14.86-6,18.94-13.9l-1.55-.9c-7.52-4.37-10.08-11.72-6.84-19.78,2.47-6.17,6.93-10.65,12.46-14.08a37.24,37.24,0,0,1,22.28-5.84c1.1.07,2.21.17,3.31.25.05.09.09.19.13.28S199.62,62.12,199.57,62.19Z"/><line class="cls-5" x1="190.69" y1="138.29" x2="190.67" y2="138.31"/><line class="cls-5" x1="189.5" y1="139.67" x2="189.45" y2="139.73"/></svg>