<svg id="Laag_1" data-name="Laag 1" xmlns="http://www.w3.org/2000/svg" viewBox="0 0 253.22 247.58"><title>move</title><path d="M238,125.75a70.2,70.2,0,0,1-5.4,7c-9.82,10-19.79,19.84-29.68,29.77-3,3.05-6.53,4.42-10.71,2.73-6.48-2.61-8-10.3-2.94-15.48,4.88-5,9.89-9.93,14.86-14.86a12,12,0,0,1,1.79-1.26l-.39-.58H135.34V203.5c.71-.65,1.24-1.09,1.73-1.58,5-5,10-10,15-15,2.7-2.67,6-3.7,9.63-2.48a9.06,9.06,0,0,1,6.42,7.6c.55,3.39-.86,6.1-3.21,8.44q-7.29,7.26-14.55,14.55-8.52,8.5-17,17c-4.91,4.89-10,4.92-14.9.06q-15.89-15.86-31.73-31.75c-5.58-5.62-3.5-14.17,3.84-16.09,3.67-1,6.74.28,9.34,2.89l14.71,14.71c.5.5,1,1,1.8,1.67V133H45.87c.64.7,1.07,1.2,1.54,1.67,5.05,5.06,10.14,10.09,15.15,15.19A8.89,8.89,0,0,1,65,159.5a9.06,9.06,0,0,1-7.66,6.35,9.17,9.17,0,0,1-8.1-3c-3.32-3.3-6.61-6.61-9.92-9.91L17.46,131.14c-5-5-5-10.1-.1-15.06Q33.14,100.27,49,84.51c5.2-5.17,12.68-4.08,15.64,2.19,1.72,3.65,1,7.53-2.26,10.8-4.86,4.94-9.78,9.82-14.7,14.71a15.34,15.34,0,0,1-1.75,1.31l.32.53h70.17V43.69c-.61.53-1.09.91-1.52,1.34-5.07,5-10.07,10.17-15.2,15.14-5,4.83-12.31,3.67-15.23-2.34a8.8,8.8,0,0,1,1-9.67,23.09,23.09,0,0,1,2.07-2.25c9.7-9.7,19.36-19.45,29.15-29.06a70.2,70.2,0,0,1,7-5.4h4.38a72.59,72.59,0,0,1,7,5.4c9.78,9.61,19.44,19.36,29.13,29.06a21,21,0,0,1,2.08,2.25,8.76,8.76,0,0,1,1.13,9.47c-2.84,6.17-10.27,7.44-15.31,2.55S141.94,50.08,136.88,45c-.43-.43-.92-.8-1.53-1.34v70.37h70.81c-1-.87-1.54-1.32-2-1.83-4.91-4.9-9.83-9.78-14.7-14.71-3.22-3.27-4-7.15-2.28-10.8,2.93-6.28,10.43-7.39,15.63-2.24,10,9.93,20,19.86,29.85,29.91a68.65,68.65,0,0,1,5.39,7Z"/></svg>